<?xml version="1.0" standalone="no"?>
<!DOCTYPE svg PUBLIC "-//W3C//DTD SVG 20010904//EN"
 "http://www.w3.org/TR/2001/REC-SVG-20010904/DTD/svg10.dtd">
<svg version="1.0" xmlns="http://www.w3.org/2000/svg"
 width="512.000000pt" height="512.000000pt" viewBox="0 0 512.000000 512.000000"
 preserveAspectRatio="xMidYMid meet">
<metadata>
Created by potrace 1.14, written by Peter Selinger 2001-2017
</metadata>
<g transform="translate(0.000000,512.000000) scale(0.100000,-0.100000)"
fill="#000000" stroke="none">
<path d="M1886 4900 c-22 -55 -6 -255 30 -362 45 -138 156 -318 273 -443 l43
-46 31 20 c70 42 183 65 328 65 l136 1 -96 51 c-102 54 -221 128 -260 163 -13
11 -28 21 -32 21 -12 0 -230 218 -259 259 -14 19 -30 40 -37 46 -16 17 -138
206 -145 225 -5 13 -6 13 -12 0z"/>
<path d="M300 4841 c0 -18 53 -156 91 -239 22 -46 39 -86 39 -88 0 -6 88 -164
111 -199 10 -16 22 -38 25 -47 4 -10 10 -18 15 -18 5 0 9 -5 9 -11 0 -15 123
-193 185 -266 5 -7 15 -18 20 -25 121 -153 332 -372 460 -476 l40 -32 -67 4
c-150 11 -363 53 -623 123 -71 19 -137 37 -145 39 -22 5 -232 71 -254 80 -53
21 142 -192 258 -281 21 -16 45 -36 52 -42 7 -7 15 -13 19 -13 3 0 32 -18 64
-40 87 -59 277 -151 441 -215 80 -31 153 -59 162 -63 38 -16 -307 -217 -482
-281 -88 -31 -270 -83 -270 -76 0 3 -11 0 -25 -5 -13 -5 -55 -12 -92 -16 -92
-9 -116 -12 -128 -14 -12 -1 86 -34 165 -54 59 -16 97 -22 175 -32 28 -3 61
-8 75 -10 87 -17 434 -10 542 10 12 2 52 9 88 16 56 10 174 39 233 56 18 6 18
5 0 -23 -35 -55 -113 -137 -184 -194 -45 -36 -225 -159 -233 -159 -2 0 -40
-21 -83 -46 -86 -52 -318 -166 -554 -273 -130 -60 -149 -71 -119 -71 183 -5
342 -1 445 11 39 5 88 10 110 13 22 2 72 10 110 16 39 7 83 14 98 16 50 7 288
64 392 95 133 39 306 102 401 145 42 19 79 33 81 30 3 -2 12 -35 22 -73 42
-171 -1 -388 -158 -780 l-21 -53 51 38 c28 20 70 50 93 66 282 196 303 212
409 321 69 70 172 212 172 236 0 4 5 13 11 19 8 8 17 4 33 -17 81 -103 353
-358 511 -479 146 -112 491 -334 518 -334 18 0 128 -169 192 -295 56 -111 125
-296 158 -425 l9 -35 8 30 c4 17 11 35 15 40 6 8 40 109 45 135 1 3 4 14 8 25
22 68 38 249 27 318 -7 51 -4 67 16 67 7 0 39 11 69 25 109 48 201 174 238
325 19 78 32 194 20 187 -62 -35 -170 -66 -247 -69 l-59 -3 -2 60 c-4 84 -21
204 -31 214 -2 2 -12 -3 -21 -11 -46 -41 -196 -98 -256 -98 -28 0 -29 1 -22
43 16 89 31 226 26 223 -166 -80 -179 -85 -244 -95 -33 -6 -50 -5 -52 3 -2 6
-6 52 -9 101 -6 94 -24 185 -37 185 -4 0 -23 -9 -41 -20 -58 -34 -121 -51
-188 -51 -71 0 -96 3 -106 14 -4 4 -14 7 -21 7 -22 0 -145 83 -189 127 -21 22
-60 63 -86 92 l-47 51 39 25 c168 106 580 143 775 69 78 -30 135 -91 135 -144
0 -11 2 -20 5 -20 3 0 35 18 71 40 36 22 68 40 70 40 5 0 40 28 66 52 25 25
31 23 65 -20 50 -61 87 -142 99 -217 10 -57 18 -54 99 39 11 13 28 41 59 99
11 20 22 37 26 37 20 0 100 -201 100 -252 0 -19 5 -28 16 -28 22 0 119 95 157
153 l32 49 37 -78 c21 -44 47 -110 59 -149 35 -118 27 -114 92 -49 54 54 121
166 131 219 2 11 10 43 18 70 15 56 19 523 5 654 -28 276 -69 459 -143 641
-31 75 -96 196 -114 210 -3 3 -14 16 -23 30 -17 24 -17 24 -17 -35 -1 -251
-99 -530 -231 -664 -52 -52 -116 -90 -141 -83 -48 12 -195 106 -323 205 -61
47 -270 208 -295 227 -166 127 -299 228 -320 242 -14 10 -45 32 -70 50 -115
82 -212 143 -295 184 -147 73 -244 72 -490 -7 -213 -69 -208 -69 -381 -11
-161 55 -393 143 -489 187 -155 71 -400 191 -403 198 -2 4 -8 7 -12 7 -21 0
-491 286 -510 310 -3 3 -43 32 -90 65 -47 32 -127 92 -177 132 -51 40 -93 69
-93 64z m2692 -1294 c89 -138 270 -302 515 -467 l51 -35 -46 -5 c-60 -6 -200
8 -297 30 -27 7 -58 13 -67 15 -68 14 -223 81 -285 124 -124 85 -118 154 27
311 35 38 67 70 70 70 3 0 17 -19 32 -43z"/>
<path d="M1765 1914 c-29 -15 -212 -80 -251 -89 -134 -31 -145 -37 -176 -86
-16 -27 -29 -52 -29 -56 0 -4 39 -18 88 -29 66 -16 114 -21 193 -19 149 3 152
5 179 112 22 84 37 183 30 183 -2 0 -17 -7 -34 -16z"/>
<path d="M1065 1728 c-46 -10 -63 -26 -148 -145 -122 -169 -201 -315 -280
-513 -42 -105 -89 -260 -101 -335 -3 -16 -9 -52 -13 -80 -12 -77 -9 -334 5
-395 l12 -55 180 0 c99 0 180 1 180 3 0 2 -9 38 -19 80 -11 43 -22 93 -25 112
-3 19 -11 60 -17 90 -13 60 -17 329 -7 425 24 210 112 483 228 702 33 62 56
114 52 116 -4 2 -25 0 -47 -5z"/>
<path d="M1170 1438 c-55 -118 -90 -205 -90 -223 0 -9 19 -24 45 -35 85 -36
167 -52 284 -53 l115 -2 46 105 c25 58 57 130 71 160 14 30 26 56 25 57 -1 1
-42 3 -93 4 -101 2 -195 18 -293 48 -36 12 -66 21 -68 21 -2 0 -20 -37 -42
-82z"/>
<path d="M2293 1432 c-36 -35 -178 -144 -268 -208 -98 -68 -93 -62 -79 -103 7
-20 13 -42 14 -49 0 -7 11 -38 25 -68 14 -30 25 -57 25 -60 0 -13 107 -183
154 -244 97 -127 232 -261 420 -420 l89 -75 417 0 c330 0 414 2 401 12 -9 7
-21 13 -27 13 -6 0 -17 7 -24 15 -7 9 -15 14 -17 11 -10 -9 -271 173 -409 285
-67 55 -294 290 -356 369 -113 146 -198 280 -284 447 l-53 102 -28 -27z"/>
<path d="M1023 1017 c0 -6 -3 -25 -6 -42 -13 -66 -20 -134 -21 -205 l-2 -74
86 -29 c47 -16 137 -39 200 -53 159 -33 375 -29 560 11 69 15 126 28 127 29 1
1 -14 26 -34 56 -20 30 -59 102 -87 161 l-51 106 -50 -12 c-135 -35 -327 -49
-427 -32 -97 17 -254 66 -284 88 -6 5 -11 4 -11 -4z"/>
<path d="M1046 366 c19 -72 38 -138 43 -146 7 -13 91 -15 653 -15 l645 0 -150
147 -151 147 -105 -26 c-205 -49 -304 -61 -476 -58 -182 3 -194 5 -366 49
l-127 33 34 -131z"/>
</g>
</svg>
